
        <svg width="237" height="196" viewBox="0 0 237 196" fill="none" xmlns="http://www.w3.org/2000/svg">
        <rect x="11.416" y="52.1169" width="100.48" height="141.94" transform="rotate(-20.0385 11.416 52.1169)" fill="#2B2B2B"/>
        <rect x="53.8984" y="134.439" width="80.4813" height="10.2431" rx="1.4633" transform="rotate(-20.0385 53.8984 134.439)" fill="#757575"/>
        <path d="M54.3998 135.813C54.1229 135.054 54.5139 134.214 55.2731 133.937L59.1881 132.509L62.6979 142.132L58.7829 143.56C58.0237 143.837 57.1837 143.446 56.9068 142.687L54.3998 135.813Z" fill="#BFC3CE"/>
        <rect x="58.9141" y="148.186" width="80.4813" height="10.2431" rx="1.4633" transform="rotate(-20.0385 58.9141 148.186)" fill="#757575"/>
        <path d="M58.9141 148.186L126.275 123.617L129.785 133.24L62.4239 157.809L58.9141 148.186Z" fill="#AFAFAF"/>
        <rect x="63.9258" y="161.933" width="80.4813" height="10.2431" rx="1.4633" transform="rotate(-20.0385 63.9258 161.933)" fill="#757575"/>
        <path d="M64.4272 163.307C64.1503 162.548 64.5413 161.708 65.3005 161.431L71.6226 159.125L75.1324 168.748L68.8103 171.054C68.0511 171.331 67.2111 170.94 66.9342 170.181L64.4272 163.307Z" fill="#BFC3CE"/>
        <rect x="43.0039" y="104.469" width="80.434" height="1.75493" rx="0.877467" transform="rotate(-21.1869 43.0039 104.469)" fill="#757575"/>
        <rect x="46.1211" y="112.51" width="80.434" height="1.75493" rx="0.877467" transform="rotate(-21.1869 46.1211 112.51)" fill="#757575"/>
        <rect x="49.2402" y="120.556" width="80.434" height="1.75493" rx="0.877467" transform="rotate(-21.1869 49.2402 120.556)" fill="#757575"/>
        <path d="M33.4435 55.8497C40.1912 47.7971 52.1893 46.7393 60.2419 53.487C68.2945 60.2347 69.3523 72.2328 62.6046 80.2854C55.8568 88.338 43.8588 89.3958 35.8062 82.6481C27.7536 75.9004 26.6957 63.9023 33.4435 55.8497ZM58.8428 77.1332C63.8496 71.1582 63.0647 62.2556 57.0897 57.2488C51.1146 52.242 42.2121 53.0269 37.2053 59.0019C32.1984 64.9769 32.9833 73.8795 38.9584 78.8863C44.9334 83.8931 53.836 83.1082 58.8428 77.1332Z" fill="#999FAE"/>
        <path d="M29.2893 64.778C31.1067 54.4303 40.9684 47.5152 51.3161 49.3326C61.6637 51.15 68.5788 61.0118 66.7614 71.3594C64.944 81.707 55.0823 88.6222 44.7346 86.8048C34.387 84.9873 27.4719 75.1256 29.2893 64.778ZM61.9275 70.5104C63.276 62.8324 58.145 55.5151 50.4671 54.1665C42.7891 52.818 35.4717 57.949 34.1232 65.627C32.7747 73.3049 37.9057 80.6223 45.5836 81.9708C53.2616 83.3194 60.579 78.1883 61.9275 70.5104Z" fill="#999FAE"/>
        <path d="M46.3541 49.1213C42.8556 49.4298 39.5108 50.7007 36.6902 52.7934C33.8696 54.886 31.6835 57.7186 30.3739 60.9774C29.0643 64.2362 28.6824 67.7939 29.2706 71.2564C29.8587 74.7189 31.394 77.9509 33.7062 80.5945C36.0184 83.238 39.0173 85.1899 42.3706 86.2338C45.724 87.2777 49.3008 87.3729 52.705 86.5088C56.1091 85.6447 59.2076 83.8551 61.6571 81.3382C64.1066 78.8214 65.8115 75.6755 66.583 72.2492L61.795 71.1712C61.2225 73.7135 59.9575 76.0477 58.1399 77.9152C56.3224 79.7827 54.0233 81.1106 51.4975 81.7517C48.9716 82.3929 46.3176 82.3223 43.8294 81.5477C41.3412 80.7731 39.116 79.3249 37.4004 77.3633C35.6847 75.4018 34.5456 73.0036 34.1091 70.4345C33.6727 67.8653 33.9561 65.2255 34.9278 62.8075C35.8995 60.3894 37.5217 58.2876 39.6145 56.7349C41.7074 55.1822 44.1892 54.2391 46.7851 54.0103L46.3541 49.1213Z" fill="#B5BAC8"/>
        <path d="M33.4435 55.8497C31.1878 58.5416 29.7213 61.8055 29.2066 65.2796C28.6919 68.7538 29.149 72.3026 30.5273 75.5329C31.9056 78.7633 34.1512 81.549 37.0155 83.5814C39.8797 85.6139 43.2507 86.8137 46.7549 87.048C50.2592 87.2823 53.7599 86.5419 56.8692 84.9089C59.9785 83.2759 62.5751 80.8139 64.3712 77.7959C66.1672 74.7778 67.0927 71.3214 67.0451 67.8096C66.9975 64.2979 65.9786 60.8679 64.1014 57.8996L59.9534 60.5229C61.3464 62.7254 62.1024 65.2705 62.1377 67.8762C62.173 70.4819 61.4863 73.0465 60.1536 75.286C58.8209 77.5254 56.8943 79.3521 54.5872 80.5638C52.28 81.7756 49.6825 82.3249 47.0824 82.1511C44.4822 81.9772 41.9809 81.0869 39.8557 79.5788C37.7304 78.0708 36.0641 76.0038 35.0414 73.6069C34.0187 71.21 33.6796 68.5767 34.0615 65.9989C34.4434 63.4211 35.5315 60.9993 37.2053 59.0019L33.4435 55.8497Z" fill="#848484"/>
        <g filter="url(#filter0_d_9122_13244)">
        <rect x="142.609" y="16.0336" width="100.48" height="141.94" transform="rotate(24.5575 142.609 16.0336)" fill="#2B2B2B"/>
        <rect x="115.062" y="104.481" width="80.4813" height="10.2431" rx="1.4633" transform="rotate(24.5575 115.062 104.481)" fill="#757575"/>
        <path d="M114.454 105.812C114.79 105.077 115.658 104.753 116.393 105.089L171.405 130.226L167.148 139.543L112.136 114.406C111.401 114.07 111.078 113.202 111.414 112.467L114.454 105.812Z" fill="#BFC3CE"/>
        <rect x="108.982" y="117.783" width="80.4813" height="10.2431" rx="1.4633" transform="rotate(24.5575 108.982 117.783)" fill="#757575"/>
        <path d="M108.374 119.114C108.71 118.379 109.578 118.056 110.313 118.391L174.198 147.583L169.941 156.899L106.056 127.708C105.321 127.372 104.998 126.504 105.333 125.769L108.374 119.114Z" fill="#BFC3CE"/>
        <rect x="102.902" y="131.094" width="80.4813" height="10.2431" rx="1.4633" transform="rotate(24.5575 102.902 131.094)" fill="#757575"/>
        <path d="M102.294 132.425C102.63 131.69 103.498 131.366 104.233 131.702L147.267 151.365L143.01 160.682L99.9762 141.018C99.2411 140.682 98.9175 139.814 99.2534 139.079L102.294 132.425Z" fill="#BFC3CE"/>
        <rect x="127.434" y="75.7719" width="80.434" height="1.75493" rx="0.877467" transform="rotate(24.6346 127.434 75.7719)" fill="#616161"/>
        <rect x="123.84" y="83.6115" width="80.434" height="1.75493" rx="0.877467" transform="rotate(24.6346 123.84 83.6115)" fill="#616161"/>
        <rect x="120.242" y="91.4551" width="80.434" height="1.75493" rx="0.877467" transform="rotate(24.6346 120.242 91.4551)" fill="#616161"/>
        <rect x="204.984" y="54.3951" width="8.29201" height="36.0946" transform="rotate(24.5575 204.984 54.3951)" fill="#C5CBD2"/>
        <rect x="182.703" y="53.8678" width="8.29201" height="27.3149" transform="rotate(24.5575 182.703 53.8678)" fill="#989EAD"/>
        <rect x="170.701" y="60.1791" width="8.29201" height="16.584" transform="rotate(24.5575 170.701 60.1791)" fill="#DBE2EA"/>
        <rect x="204.418" y="75.5905" width="8.29201" height="16.584" transform="rotate(24.5575 204.418 75.5905)" fill="#989EAD"/>
        </g>
        <g filter="url(#filter1_d_9122_13244)">
        <rect x="74.5488" y="11.8149" width="100.48" height="141.94" fill="#1C1C1C"/>
        <path d="M121.862 116.2C121.862 126.706 113.345 135.223 102.839 135.223C92.3332 135.223 83.8164 126.706 83.8164 116.2C83.8164 105.694 92.3332 97.1769 102.839 97.1769C113.345 97.1769 121.862 105.694 121.862 116.2ZM88.7243 116.2C88.7243 123.995 95.0438 130.315 102.839 130.315C110.635 130.315 116.954 123.995 116.954 116.2C116.954 108.404 110.635 102.085 102.839 102.085C95.0438 102.085 88.7243 108.404 88.7243 116.2Z" fill="#999FAE"/>
        <path d="M119.313 106.686C124.566 115.785 121.449 127.419 112.351 132.672C103.252 137.925 91.618 134.808 86.3649 125.709C81.1119 116.611 84.2293 104.977 93.3278 99.7236C102.426 94.4705 114.06 97.5879 119.313 106.686ZM90.6153 123.255C94.513 130.006 103.146 132.319 109.897 128.422C116.648 124.524 118.961 115.891 115.063 109.14C111.165 102.389 102.533 100.076 95.7817 103.974C89.0307 107.872 86.7176 116.504 90.6153 123.255Z" fill="#999FAE"/>
        <path d="M116.289 129.65C118.056 127.883 119.457 125.786 120.413 123.478C121.369 121.17 121.861 118.697 121.861 116.199L116.953 116.199C116.953 118.052 116.588 119.888 115.878 121.6C115.169 123.313 114.129 124.869 112.819 126.179L116.289 129.65Z" fill="url(#paint0_linear_9122_13244)"/>
        <path d="M121.968 116.187C121.968 112.675 120.995 109.232 119.158 106.238C117.322 103.245 114.692 100.818 111.561 99.2277C108.43 97.6369 104.919 96.9441 101.418 97.2259C97.9176 97.5077 94.5632 98.7531 91.7268 100.824C88.8904 102.895 86.6827 105.711 85.3483 108.96C84.014 112.209 83.605 115.763 84.1668 119.23C84.7286 122.697 86.2392 125.941 88.5312 128.602C90.8232 131.263 93.8071 133.238 97.1524 134.307L98.6468 129.632C96.1646 128.839 93.9505 127.373 92.2499 125.399C90.5492 123.424 89.4283 121.018 89.0115 118.445C88.5947 115.873 88.8981 113.235 89.8882 110.825C90.8783 108.414 92.5164 106.325 94.621 104.788C96.7257 103.251 99.2146 102.327 101.812 102.118C104.41 101.909 107.014 102.423 109.338 103.603C111.661 104.784 113.612 106.584 114.975 108.805C116.338 111.026 117.06 113.581 117.06 116.187H121.968Z" fill="#848484"/>
        <rect x="128.203" y="105.466" width="3.41436" height="2.92659" fill="#848484"/>
        <rect x="136.496" y="105.466" width="28.2904" height="2.92659" fill="#848484"/>
        <rect x="128.203" y="114.244" width="3.41436" height="2.92659" fill="#B5BAC8"/>
        <rect x="136.496" y="114.245" width="28.2904" height="2.92659" fill="#848484"/>
        <rect x="128.203" y="123.023" width="3.41436" height="2.92659" fill="#999FAE"/>
        <rect x="136.496" y="123.023" width="28.2904" height="2.92659" fill="#848484"/>
        <rect x="83.9805" y="62.8073" width="80.434" height="1.75493" rx="0.877467" fill="#ABB2C3"/>
        <rect x="83.9805" y="71.4337" width="80.434" height="1.75493" rx="0.877467" fill="#ABB2C3"/>
        <rect x="83.9805" y="80.0559" width="80.434" height="1.75493" rx="0.877467" fill="#ABB2C3"/>
        <path opacity="0.6" d="M90.7631 50.8351L84.666 54.9811H164.416V23.0325L146.856 32.5439L132.467 33.5194L123.931 39.8604H113.932L100.762 49.3718L90.7631 50.8351Z" fill="url(#paint1_linear_9122_13244)"/>
        <path d="M91.3373 51.2948L85.2402 55.4408H164.502V30.077L150.357 36.6619L134.505 38.6129L130.602 42.0273L115.726 43.9783L104.507 51.2948H91.3373Z" fill="url(#paint2_linear_9122_13244)"/>
        </g>
        <defs>
        <filter id="filter0_d_9122_13244" x="81.1803" y="15.5458" width="155.259" height="175.738" filterUnits="userSpaceOnUse" color-interpolation-filters="sRGB">
        <feFlood flood-opacity="0" result="BackgroundImageFix"/>
        <feColorMatrix in="SourceAlpha" type="matrix" values="0 0 0 0 0 0 0 0 0 0 0 0 0 0 0 0 0 0 127 0" result="hardAlpha"/>
        <feOffset dy="1.95106"/>
        <feGaussianBlur stdDeviation="1.21941"/>
        <feComposite in2="hardAlpha" operator="out"/>
        <feColorMatrix type="matrix" values="0 0 0 0 0 0 0 0 0 0 0 0 0 0 0 0 0 0 0.25 0"/>
        <feBlend mode="normal" in2="BackgroundImageFix" result="effect1_dropShadow_9122_13244"/>
        <feBlend mode="normal" in="SourceGraphic" in2="effect1_dropShadow_9122_13244" result="shape"/>
        </filter>
        <filter id="filter1_d_9122_13244" x="65.7691" y="4.98623" width="118.04" height="159.499" filterUnits="userSpaceOnUse" color-interpolation-filters="sRGB">
        <feFlood flood-opacity="0" result="BackgroundImageFix"/>
        <feColorMatrix in="SourceAlpha" type="matrix" values="0 0 0 0 0 0 0 0 0 0 0 0 0 0 0 0 0 0 127 0" result="hardAlpha"/>
        <feOffset dy="1.95106"/>
        <feGaussianBlur stdDeviation="4.38989"/>
        <feComposite in2="hardAlpha" operator="out"/>
        <feColorMatrix type="matrix" values="0 0 0 0 0 0 0 0 0 0 0 0 0 0 0 0 0 0 0.25 0"/>
        <feBlend mode="normal" in2="BackgroundImageFix" result="effect1_dropShadow_9122_13244"/>
        <feBlend mode="normal" in="SourceGraphic" in2="effect1_dropShadow_9122_13244" result="shape"/>
        </filter>
        <linearGradient id="paint0_linear_9122_13244" x1="103.51" y1="93.8119" x2="108.144" y2="139.299" gradientUnits="userSpaceOnUse">
        <stop stop-color="#FF9500"/>
        <stop offset="1" stop-color="#DB2777"/>
        </linearGradient>
        <linearGradient id="paint1_linear_9122_13244" x1="92.3562" y1="25.3145" x2="116.413" y2="74.2619" gradientUnits="userSpaceOnUse">
        <stop stop-color="#FF9500"/>
        <stop offset="1" stop-color="#DB2777"/>
        </linearGradient>
        <linearGradient id="paint2_linear_9122_13244" x1="92.8833" y1="31.8887" x2="109.295" y2="73.6916" gradientUnits="userSpaceOnUse">
        <stop stop-color="#FF9500"/>
        <stop offset="1" stop-color="#DB2777"/>
        </linearGradient>
        </defs>
        </svg>
