<svg id="visual" viewBox="0 0 900 600" width="900" height="600" xmlns="http://www.w3.org/2000/svg" xmlns:xlink="http://www.w3.org/1999/xlink" version="1.1"><rect x="0" y="0" width="900" height="600" fill="#000000"></rect><path d="M0 492L129 492L129 490L257 490L257 491L386 491L386 499L514 499L514 504L643 504L643 492L771 492L771 493L900 493L900 503L900 601L900 601L771 601L771 601L643 601L643 601L514 601L514 601L386 601L386 601L257 601L257 601L129 601L129 601L0 601Z" fill="#303030"></path><path d="M0 527L129 527L129 520L257 520L257 520L386 520L386 518L514 518L514 531L643 531L643 532L771 532L771 522L900 522L900 532L900 601L900 601L771 601L771 601L643 601L643 601L514 601L514 601L386 601L386 601L257 601L257 601L129 601L129 601L0 601Z" fill="#5e5e5e"></path><path d="M0 532L129 532L129 552L257 552L257 531L386 531L386 547L514 547L514 529L643 529L643 541L771 541L771 534L900 534L900 548L900 601L900 601L771 601L771 601L643 601L643 601L514 601L514 601L386 601L386 601L257 601L257 601L129 601L129 601L0 601Z" fill="#909090"></path><path d="M0 545L129 545L129 555L257 555L257 562L386 562L386 567L514 567L514 562L643 562L643 565L771 565L771 547L900 547L900 555L900 601L900 601L771 601L771 601L643 601L643 601L514 601L514 601L386 601L386 601L257 601L257 601L129 601L129 601L0 601Z" fill="#c6c6c6"></path><path d="M0 586L129 586L129 581L257 581L257 573L386 573L386 579L514 579L514 586L643 586L643 567L771 567L771 591L900 591L900 580L900 601L900 601L771 601L771 601L643 601L643 601L514 601L514 601L386 601L386 601L257 601L257 601L129 601L129 601L0 601Z" fill="#ffffff"></path></svg>