<svg width="33" height="33" viewBox="0 0 33 33" fill="none" xmlns="http://www.w3.org/2000/svg">
<g clip-path="url(#clip0_13878_12544)">
<path fill-rule="evenodd" clip-rule="evenodd" d="M25.5609 15.368V19.771C25.5609 24.9649 21.6263 29.2399 16.5752 29.7779V19.771C16.5752 19.1755 16.0924 18.6927 15.4969 18.6927C14.9014 18.6927 14.4186 19.1755 14.4186 19.771V29.7779C9.36751 29.2399 5.43295 24.9649 5.43295 19.771V15.368C5.43295 12.9709 6.9229 10.9217 9.02723 10.0961C9.66749 9.84495 10.3646 9.70703 11.0939 9.70703H19.8999C20.6293 9.70703 21.3264 9.84495 21.9666 10.0961C24.071 10.9217 25.5609 12.9709 25.5609 15.368Z" fill="#B0B7C3"/>
<path d="M25.5607 19.4105V17.2539H29.8739C30.4694 17.2539 30.9521 17.7367 30.9521 18.3322C30.9521 18.9277 30.4694 19.4105 29.8739 19.4105H25.5607Z" fill="#4E5D78"/>
<path d="M23.3978 26.0026C23.8447 25.437 24.2321 24.8223 24.5507 24.168L28.1996 25.9927C28.7323 26.259 28.9483 26.9067 28.6818 27.4393C28.4154 27.972 27.7677 28.1878 27.2352 27.9215L23.3978 26.0026Z" fill="#4E5D78"/>
<path d="M6.44259 24.168C6.76117 24.8223 7.14862 25.437 7.59549 26.0026L3.75818 27.9215C3.22554 28.1878 2.57784 27.972 2.31149 27.4393C2.04514 26.9067 2.26099 26.259 2.79362 25.9927L6.44259 24.168Z" fill="#4E5D78"/>
<path d="M5.43109 17.2539H1.11796C0.522442 17.2539 0.0396729 17.7367 0.0396729 18.3322C0.0396729 18.9277 0.522442 19.4105 1.11796 19.4105H5.43109V17.2539Z" fill="#4E5D78"/>
<path d="M23.1928 10.764L27.2344 8.743C27.7669 8.47665 28.4146 8.69252 28.681 9.22515C28.9474 9.75778 28.7314 10.4055 28.1988 10.6718L24.7254 12.4088C24.3289 11.7636 23.8067 11.2039 23.1928 10.764Z" fill="#4E5D78"/>
<path d="M7.79972 10.764C7.18582 11.2039 6.66354 11.7636 6.267 12.4088L2.79362 10.6718C2.26099 10.4055 2.04514 9.75778 2.31149 9.22515C2.57784 8.69252 3.22554 8.47665 3.75818 8.743L7.79972 10.764Z" fill="#4E5D78"/>
<path d="M21.9662 10.1011V8.99314C21.9662 5.42002 19.0696 2.52344 15.4965 2.52344C11.9233 2.52344 9.02676 5.42002 9.02676 8.99314V10.1011C9.66702 9.84991 10.3641 9.71199 11.0935 9.71199H19.8995C20.6288 9.71199 21.3259 9.84991 21.9662 10.1011Z" fill="#4E5D78"/>
<path d="M7.41055 0.484172C7.08022 0.979679 7.21411 1.64915 7.70961 1.97949L11.102 4.24111C11.6794 3.70663 12.3543 3.27612 13.0972 2.97935L8.90585 0.185114C8.41036 -0.145214 7.74089 -0.0113202 7.41055 0.484172Z" fill="#4E5D78"/>
<path d="M19.8899 4.2412C19.3127 3.7067 18.6377 3.27619 17.8948 2.97941L22.0863 0.185114C22.5817 -0.145214 23.2513 -0.0113202 23.5815 0.484172C23.9119 0.979679 23.7781 1.64915 23.2825 1.97949L19.8899 4.2412Z" fill="#4E5D78"/>
</g>
<defs>
<clipPath id="clip0_13878_12544">
<rect width="32.5449" height="32.5449" fill="white" transform="translate(0.101562)"/>
</clipPath>
</defs>
</svg>
