
<svg width="200" height="196" viewBox="0 0 200 196" fill="none" xmlns="http://www.w3.org/2000/svg">
    <path d="M22.3646 87.7738C22.3653 87.7738 22.3658 87.7732 22.3658 87.7725L22.3915 72.411C22.394 71.664 22.6783 70.9758 23.2059 70.4411L24.3041 69.3442C26.7806 66.8704 28.1721 63.5137 28.1721 60.0133C28.1747 59.2714 28.4564 58.5755 28.9891 58.046L49.1151 37.9451C49.6453 37.4206 50.3317 37.1341 51.0872 37.129H53.7478C56.7543 37.129 59.6378 35.9355 61.7649 33.8108C62.3002 33.2838 62.984 32.9998 63.7344 32.9947C67.103 32.9947 70.3339 31.6575 72.7171 29.2769L74.22 27.7757C74.7528 27.2538 75.4366 26.9724 76.1845 26.9673H107.557C108.305 26.9698 108.994 27.2564 109.526 27.7834C109.954 28.211 110.534 28.4516 111.14 28.4525L124.297 28.4716C125.039 28.4741 125.713 28.7351 126.243 29.2647L126.764 29.7853C130.103 33.1198 134.628 34.9928 139.346 34.9928C140.089 34.9979 140.783 35.2768 141.319 35.8089L153.538 48.0173C154.032 48.5034 154.33 49.1855 154.357 49.8755C154.357 49.8963 154.366 49.9162 154.38 49.9311L154.382 49.9331C154.413 49.9645 154.412 50.0146 154.381 50.0456C154.366 50.0606 154.358 50.081 154.357 50.1023C154.357 50.1101 154.357 50.118 154.356 50.1259C154.352 50.2129 154.424 50.2857 154.511 50.2813C154.519 50.2809 154.527 50.2805 154.536 50.2801C154.556 50.2792 154.576 50.2708 154.59 50.2564C154.622 50.225 154.673 50.225 154.704 50.2564L154.706 50.2581C154.721 50.273 154.741 50.2817 154.762 50.2825C155.435 50.3084 156.11 50.589 156.617 51.0975L168.654 63.1242C169.172 63.6359 169.471 64.3676 169.466 65.0891V68.4201C169.466 71.7205 170.778 74.8856 173.113 77.2181C173.636 77.7503 173.92 78.4282 173.925 79.1829C173.925 80.2328 174.343 81.2396 175.086 81.9812L176.732 83.6242C177.247 84.1487 177.537 84.8343 177.539 85.5839L177.557 101.914C177.554 102.668 177.262 103.357 176.74 103.881C174.938 105.681 173.925 108.124 173.925 110.671V117.328C173.923 118.075 173.633 118.768 173.108 119.295L167.728 124.667C167.49 124.905 167.356 125.228 167.356 125.565C167.356 125.791 167.422 126.012 167.515 126.218C167.698 126.622 167.802 127.071 167.804 127.548C167.804 129.331 166.357 130.777 164.572 130.777C162.784 130.777 161.339 129.331 161.337 127.548C161.337 127.291 160.751 126.944 160.569 127.125L158.559 129.133C158.45 129.242 158.389 129.39 158.389 129.544V135.479C158.407 136.208 158.389 137.004 157.995 137.429L148.31 147.1C146.562 148.846 145.58 151.214 145.58 153.684V154.5C145.58 155.621 146.021 156.723 146.026 157.844C146.026 159.627 144.579 161.073 142.794 161.075C141.3 161.075 139.848 160.282 138.355 160.28L131.186 160.275C129.642 160.269 128.402 159.029 128.4 157.491V152.321C128.4 151.199 127.954 150.094 127.954 148.972L127.964 144.771C127.964 143.428 128.07 141.834 127.119 140.884L123.587 137.354C123.106 136.792 122.816 136.06 122.814 135.259C122.814 135.157 122.731 135.07 122.629 135.07H116.014C115.256 135.065 114.577 134.776 114.044 134.254C113.224 133.435 112.113 132.975 110.954 132.975H95.1605C94.4305 132.975 93.7057 132.678 93.1883 132.158L92.5933 131.566C91.8817 130.857 90.7307 130.858 90.0201 131.567C89.4925 132.105 88.7523 132.394 88.0429 132.389H84.3342C83.6248 132.394 82.8795 132.1 82.3621 131.575L78.0141 127.232C76.0414 125.261 72.5783 123.882 72.5783 121.094C72.5783 120.928 72.4496 120.784 72.2836 120.784H67.1818C66.4288 120.779 65.7501 120.497 65.2097 119.968C65.0759 119.836 64.8547 119.859 64.7342 120.004C64.1425 120.714 63.2498 121.168 62.2489 121.168H58.3073C57.1831 121.168 56.0775 120.72 54.9534 120.72H48.1598C47.4503 120.725 46.6999 120.428 46.1902 119.907L38.9292 112.654C38.4041 112.127 38.1147 111.433 38.1121 110.686C38.1121 109.125 37.4917 107.628 36.3874 106.525L32.5741 102.715C30.6027 100.745 27.1399 99.3664 27.1399 96.5796C27.1399 95.3475 27.1798 93.9193 26.3088 93.0479L23.1598 89.8972C22.6632 89.3296 22.3636 88.5882 22.3633 87.7751C22.3633 87.7744 22.3639 87.7738 22.3646 87.7738Z" fill="#2F2F2F"/>
    <path d="M123.816 176.209H123.246V153.154L130.676 147.778L131.011 148.24L123.816 153.445V176.209Z" fill="#4A4A4A"/>
    <circle cx="131.948" cy="147.071" r="1.67121" fill="#4A4A4A"/>
    <circle cx="123.573" cy="177.699" r="1.67121" fill="#4A4A4A"/>
    <path d="M109.147 136.459H108.577V149.738H109.147V136.459Z" fill="#4A4A4A"/>
    <circle cx="108.862" cy="150.714" r="1.67121" fill="#4A4A4A"/>
    <circle cx="108.862" cy="135.067" r="1.67121" fill="#4A4A4A"/>
    <path d="M118.856 162.177H118.286V139.472L118.398 139.384L134.956 126.764L135.301 127.217L118.856 139.754V162.177Z" fill="#4A4A4A"/>
    <circle cx="136.034" cy="126.206" r="1.67121" fill="#4A4A4A"/>
    <circle cx="118.513" cy="163.665" r="1.67121" fill="#4A4A4A"/>
    <path d="M113.917 147.524H113.347V169.148H113.917V147.524Z" fill="#4A4A4A"/>
    <circle cx="113.633" cy="146.494" r="1.67121" fill="#4A4A4A"/>
    <circle cx="113.635" cy="170.111" r="1.67121" fill="#4A4A4A"/>
    <path d="M63.8081 105.959H47.6149L36.1611 93.4636L36.5815 93.0792L47.8649 105.389H63.6604L69.3807 102.242L73.8569 102.465L73.8285 103.035L69.5132 102.821L63.8081 105.959Z" fill="#4A4A4A"/>
    <circle cx="35.3978" cy="92.238" r="1.67121" fill="#4A4A4A"/>

    <path d="M70.364 64.1837C69.6673 64.1837 69.1025 64.7485 69.1025 65.4452C69.1025 66.1419 69.6673 66.7067 70.364 66.7067L79.1945 66.7067L79.1945 64.1837L70.364 64.1837Z" fill="url(#paint0_linear_orange_pink)"/>
    <path d="M70.364 72.5914C69.6673 72.5914 69.1025 73.1562 69.1025 73.8529C69.1025 74.5496 69.6673 75.1144 70.364 75.1144L79.1945 75.1144L79.1945 72.5914L70.364 72.5914Z" fill="url(#paint1_linear_orange_pink)"/>
    <path d="M70.364 81.0027C69.6673 81.0027 69.1025 81.5675 69.1025 82.2642C69.1025 82.9609 69.6673 83.5257 70.364 83.5257L79.1945 83.5257L79.1945 81.0027L70.364 81.0027Z" fill="url(#paint2_linear_orange_pink)"/>
    <path d="M70.364 89.4142C69.6673 89.4142 69.1025 89.979 69.1025 90.6757C69.1025 91.3724 69.6673 91.9372 70.364 91.9372L79.1945 91.9372L79.1945 89.4142L70.364 89.4142Z" fill="url(#paint3_linear_orange_pink)"/>
    <path d="M70.364 97.8253C69.6673 97.8253 69.1025 98.3901 69.1025 99.0868C69.1025 99.7835 69.6673 100.348 70.364 100.348L79.1945 100.348L79.1945 97.8253L70.364 97.8253Z" fill="url(#paint4_linear_orange_pink)"/>

    <path d="M130.085 64.1836C130.782 64.1836 131.347 64.7484 131.347 65.4451C131.347 66.1418 130.782 66.7066 130.085 66.7066L121.255 66.7066L121.255 64.1836L130.085 64.1836Z" fill="url(#paint5_linear_orange_pink)"/>
    <path d="M130.085 72.5913C130.782 72.5913 131.347 73.1561 131.347 73.8528C131.347 74.5495 130.782 75.1143 130.085 75.1143L121.255 75.1143L121.255 72.5913L130.085 72.5913Z" fill="url(#paint6_linear_orange_pink)"/>
    <path d="M130.085 81.0026C130.782 81.0026 131.347 81.5674 131.347 82.2641C131.347 82.9608 130.782 83.5255 130.085 83.5255L121.255 83.5255L121.255 81.0026L130.085 81.0026Z" fill="url(#paint7_linear_orange_pink)"/>
    <path d="M130.085 89.4141C130.782 89.4141 131.347 89.9789 131.347 90.6756C131.347 91.3723 130.782 91.937 130.085 91.937L121.255 91.937L121.255 89.4141L130.085 89.4141Z" fill="url(#paint8_linear_orange_pink)"/>
    <path d="M130.085 97.8252C130.782 97.8252 131.347 98.39 131.347 99.0867C131.347 99.7834 130.782 100.348 130.085 100.348L121.255 100.348L121.255 97.8252L130.085 97.8252Z" fill="url(#paint9_linear_orange_pink)"/>

    <path d="M81.6875 50.1597C81.6875 49.463 82.2523 48.8982 82.949 48.8982C83.6457 48.8982 84.2105 49.463 84.2105 50.1597V58.9901H81.6875V50.1597Z" fill="url(#paint10_linear_orange_pink)"/>
    <path d="M81.6875 112.581C81.6875 113.278 82.2523 113.843 82.949 113.843C83.6457 113.843 84.2105 113.278 84.2105 112.581V103.751H81.6875V112.581Z" fill="url(#paint11_linear_orange_pink)"/>
    <path d="M90.0967 50.1597C90.0967 49.463 90.6615 48.8982 91.3582 48.8982C92.0549 48.8982 92.6197 49.463 92.6197 50.1597V58.9901H90.0967V50.1597Z" fill="url(#paint12_linear_orange_pink)"/>
    <path d="M90.0967 112.581C90.0967 113.278 90.6615 113.843 91.3582 113.843C92.0549 113.843 92.6197 113.278 92.6197 112.581V103.751H90.0967V112.581Z" fill="url(#paint13_linear_orange_pink)"/>
    <path d="M98.5068 50.1597C98.5068 49.463 99.0716 48.8982 99.7683 48.8982C100.465 48.8982 101.03 49.463 101.03 50.1597V58.9901H98.5068V50.1597Z" fill="url(#paint14_linear_orange_pink)"/>
    <path d="M98.5068 112.581C98.5068 113.278 99.0716 113.843 99.7683 113.843C100.465 113.843 101.03 113.278 101.03 112.581V103.751H98.5068V112.581Z" fill="url(#paint15_linear_orange_pink)"/>
    <path d="M106.918 50.1597C106.918 49.463 107.483 48.8982 108.179 48.8982C108.876 48.8982 109.441 49.463 109.441 50.1597V58.9901H106.918V50.1597Z" fill="url(#paint16_linear_orange_pink)"/>
    <path d="M106.918 112.581C106.918 113.278 107.483 113.843 108.179 113.843C108.876 113.843 109.441 113.278 109.441 112.581V103.751H106.918V112.581Z" fill="url(#paint17_linear_orange_pink)"/>
    <path d="M115.327 50.1597C115.327 49.463 115.892 48.8982 116.589 48.8982C117.285 48.8982 117.85 49.463 117.85 50.1597V58.9901H115.327V50.1597Z" fill="url(#paint18_linear_orange_pink)"/>
    <path d="M115.327 112.581C115.327 113.278 115.892 113.843 116.589 113.843C117.285 113.843 117.85 113.278 117.85 112.581V103.751H115.327V112.581Z" fill="url(#paint19_linear_orange_pink)"/>
    
    <rect x="74.502" y="55.1886" width="52.1545" height="53.953" rx="3.59686" fill="url(#paint20_linear_orange_pink)"/>
    <path d="M118.563 58.7852H82.5947C80.1116 58.7852 78.0986 60.7981 78.0986 63.2812V101.048C78.0986 103.531 80.1116 105.544 82.5947 105.544H114.067L123.059 95.653V63.2812C123.059 60.7981 121.046 58.7852 118.563 58.7852Z" fill="#1C1C1C"/>
    <path d="M93.8513 88.2069H91.0799L95.3028 75.9743H98.6357L102.853 88.2069H100.081L97.017 78.7696H96.9214L93.8513 88.2069ZM93.6781 83.3987H100.225V85.4175H93.6781V83.3987ZM107.836 75.9743V88.2069H105.25V75.9743H107.836Z" fill="url(#paint21_linear_orange_pink)"/>

    <path d="M151.325 125.361C155.91 124.948 158.545 124.568 160.162 123.313C162.063 121.843 162.513 119.151 163.014 113.767C163.53 119.349 163.997 122.025 166.082 123.461C167.699 124.584 170.317 124.948 174.702 125.344C170.133 125.757 167.482 126.137 165.882 127.375C163.964 128.862 163.514 131.537 163.014 136.937C162.547 131.967 162.13 129.308 160.579 127.772C159.028 126.236 156.327 125.807 151.325 125.361Z" fill="white"/>
    <path d="M140.266 117.697C142.178 114.462 143.235 112.85 144.3 112.85C145.365 112.85 146.422 114.462 148.325 117.697C146.422 114.462 145.514 112.756 146.046 111.86C146.579 110.964 148.544 110.87 152.359 110.87C148.404 110.87 146.439 110.776 145.994 109.786C145.575 108.864 146.483 107.166 148.325 104.043C146.413 107.277 145.356 108.89 144.291 108.89C143.226 108.89 142.169 107.277 140.257 104.043C142.283 107.482 143.173 109.189 142.423 110.042C141.759 110.793 139.803 110.87 136.223 110.87C140.257 110.87 142.222 110.972 142.615 112.022C142.973 112.96 142.065 114.65 140.266 117.697Z" fill="white"/>
    <path d="M30.7969 29.0074V16H44.8883" stroke="white" stroke-width="2.53029" stroke-linecap="square" stroke-linejoin="round"/>
    <path d="M177.059 29.0074V16H162.967" stroke="white" stroke-width="2.53029" stroke-linecap="square" stroke-linejoin="round"/>
    <path d="M30.7969 149.617V162.625H44.8883" stroke="white" stroke-width="2.53029" stroke-linecap="square" stroke-linejoin="round"/>
    <path d="M177.059 149.617V162.625H162.967" stroke="white" stroke-width="2.53029" stroke-linecap="square" stroke-linejoin="round"/>

    <defs>
        <linearGradient id="paint0_linear_orange_pink" x1="69.8234" y1="64.427" x2="70.5887" y2="68.1828" gradientUnits="userSpaceOnUse">
            <stop stop-color="#FF9800"/>
            <stop offset="1" stop-color="#DB2777"/>
        </linearGradient>
        <linearGradient id="paint1_linear_orange_pink" x1="69.8234" y1="72.8347" x2="70.5887" y2="76.5905" gradientUnits="userSpaceOnUse">
            <stop stop-color="#FF9800"/>
            <stop offset="1" stop-color="#DB2777"/>
        </linearGradient>
        <linearGradient id="paint2_linear_orange_pink" x1="69.8234" y1="81.246" x2="70.5887" y2="85.0018" gradientUnits="userSpaceOnUse">
            <stop stop-color="#FF9800"/>
            <stop offset="1" stop-color="#DB2777"/>
        </linearGradient>
        <linearGradient id="paint3_linear_orange_pink" x1="69.8234" y1="89.6575" x2="70.5887" y2="93.4133" gradientUnits="userSpaceOnUse">
            <stop stop-color="#FF9800"/>
            <stop offset="1" stop-color="#DB2777"/>
        </linearGradient>
        <linearGradient id="paint4_linear_orange_pink" x1="69.8234" y1="98.0686" x2="70.5887" y2="101.824" gradientUnits="userSpaceOnUse">
            <stop stop-color="#FF9800"/>
            <stop offset="1" stop-color="#DB2777"/>
        </linearGradient>
        <linearGradient id="paint5_linear_orange_pink" x1="130.626" y1="64.4269" x2="129.86" y2="68.1827" gradientUnits="userSpaceOnUse">
            <stop stop-color="#FF9800"/>
            <stop offset="1" stop-color="#DB2777"/>
        </linearGradient>
        <linearGradient id="paint6_linear_orange_pink" x1="130.626" y1="72.8346" x2="129.86" y2="76.5904" gradientUnits="userSpaceOnUse">
            <stop stop-color="#FF9800"/>
            <stop offset="1" stop-color="#DB2777"/>
        </linearGradient>
        <linearGradient id="paint7_linear_orange_pink" x1="130.626" y1="81.2459" x2="129.86" y2="85.0016" gradientUnits="userSpaceOnUse">
            <stop stop-color="#FF9800"/>
            <stop offset="1" stop-color="#DB2777"/>
        </linearGradient>
        <linearGradient id="paint8_linear_orange_pink" x1="130.626" y1="89.6574" x2="129.86" y2="93.4131" gradientUnits="userSpaceOnUse">
            <stop stop-color="#FF9800"/>
            <stop offset="1" stop-color="#DB2777"/>
        </linearGradient>
        <linearGradient id="paint9_linear_orange_pink" x1="130.626" y1="98.0685" x2="129.86" y2="101.824" gradientUnits="userSpaceOnUse">
            <stop stop-color="#FF9800"/>
            <stop offset="1" stop-color="#DB2777"/>
        </linearGradient>
        <linearGradient id="paint10_linear_orange_pink" x1="81.9308" y1="49.619" x2="85.6866" y2="50.3844" gradientUnits="userSpaceOnUse">
            <stop stop-color="#FF9800"/>
            <stop offset="1" stop-color="#DB2777"/>
        </linearGradient>
        <linearGradient id="paint11_linear_orange_pink" x1="81.9308" y1="113.122" x2="85.6866" y2="112.357" gradientUnits="userSpaceOnUse">
            <stop stop-color="#FF9800"/>
            <stop offset="1" stop-color="#DB2777"/>
        </linearGradient>
        <linearGradient id="paint12_linear_orange_pink" x1="90.34" y1="49.619" x2="94.0957" y2="50.3844" gradientUnits="userSpaceOnUse">
            <stop stop-color="#FF9800"/>
            <stop offset="1" stop-color="#DB2777"/>
        </linearGradient>
        <linearGradient id="paint13_linear_orange_pink" x1="90.34" y1="113.122" x2="94.0957" y2="112.357" gradientUnits="userSpaceOnUse">
            <stop stop-color="#FF9800"/>
            <stop offset="1" stop-color="#DB2777"/>
        </linearGradient>
        <linearGradient id="paint14_linear_orange_pink" x1="98.7501" y1="49.619" x2="102.506" y2="50.3844" gradientUnits="userSpaceOnUse">
            <stop stop-color="#FF9800"/>
            <stop offset="1" stop-color="#DB2777"/>
        </linearGradient>
        <linearGradient id="paint15_linear_orange_pink" x1="98.7501" y1="113.122" x2="102.506" y2="112.357" gradientUnits="userSpaceOnUse">
            <stop stop-color="#FF9800"/>
            <stop offset="1" stop-color="#DB2777"/>
        </linearGradient>
        <linearGradient id="paint16_linear_orange_pink" x1="107.161" y1="49.619" x2="110.917" y2="50.3844" gradientUnits="userSpaceOnUse">
            <stop stop-color="#FF9800"/>
            <stop offset="1" stop-color="#DB2777"/>
        </linearGradient>
        <linearGradient id="paint17_linear_orange_pink" x1="107.161" y1="113.122" x2="110.917" y2="112.357" gradientUnits="userSpaceOnUse">
            <stop stop-color="#FF9800"/>
            <stop offset="1" stop-color="#DB2777"/>
        </linearGradient>
        <linearGradient id="paint18_linear_orange_pink" x1="115.57" y1="49.619" x2="119.326" y2="50.3844" gradientUnits="userSpaceOnUse">
            <stop stop-color="#FF9800"/>
            <stop offset="1" stop-color="#DB2777"/>
        </linearGradient>
        <linearGradient id="paint19_linear_orange_pink" x1="115.57" y1="113.122" x2="119.326" y2="112.357" gradientUnits="userSpaceOnUse">
            <stop stop-color="#FF9800"/>
            <stop offset="1" stop-color="#DB2777"/>
        </linearGradient>
        <linearGradient id="paint20_linear_orange_pink" x1="79.5311" y1="59.0424" x2="129.421" y2="98.3516" gradientUnits="userSpaceOnUse">
            <stop stop-color="#FF9800"/>
            <stop offset="1" stop-color="#DB2777"/>
        </linearGradient>
        <linearGradient id="paint21_linear_orange_pink" x1="92.5118" y1="73.6355" x2="110.928" y2="87.8957" gradientUnits="userSpaceOnUse">
            <stop stop-color="#FF9800"/>
            <stop offset="1" stop-color="#DB2777"/>
        </linearGradient>
    </defs>
</svg>

