<svg width="31" height="32" viewBox="0 0 31 32" fill="none" xmlns="http://www.w3.org/2000/svg">
<path d="M25.4481 29.3828L3.87451 29.3828L3.87451 8.60254L8.52764 3.88246L25.4481 3.88246L25.4481 29.3828Z" fill="url(#paint0_linear_9694_26260)"/>
<circle cx="21.6847" cy="6.6852" r="5.6852" fill="white"/>
<path d="M8.37439 8.84554L8.3176 4.21396L3.72362 8.93341L8.37439 8.84554Z" fill="#4E5D78"/>
<rect x="7.99951" y="19" width="13.6732" height="6.83659" rx="0.982456" fill="white"/>
<path d="M10.6432 24.4511C10.5255 24.4511 10.4246 24.4109 10.3405 24.3306C10.2564 24.2503 10.215 24.1524 10.2163 24.0369C10.215 23.924 10.2564 23.8274 10.3405 23.7471C10.4246 23.6668 10.5255 23.6266 10.6432 23.6266C10.7571 23.6266 10.8561 23.6668 10.9401 23.7471C11.0255 23.8274 11.0689 23.924 11.0702 24.0369C11.0689 24.1135 11.0482 24.1831 11.0081 24.2459C10.9692 24.3086 10.9175 24.3588 10.8528 24.3965C10.7894 24.4329 10.7196 24.4511 10.6432 24.4511Z" fill="#0D0D0D"/>
<path d="M14.1512 22.2826L13.5108 22.3504C13.4927 22.2877 13.461 22.2287 13.4157 22.1735C13.3717 22.1183 13.3122 22.0737 13.2372 22.0398C13.1622 22.0059 13.0703 21.989 12.9616 21.989C12.8155 21.989 12.6926 22.0197 12.593 22.0812C12.4946 22.1427 12.4461 22.2224 12.4474 22.3203C12.4461 22.4044 12.4778 22.4728 12.5425 22.5255C12.6085 22.5782 12.7171 22.6215 12.8685 22.6553L13.3769 22.7607C13.6589 22.8197 13.8685 22.9132 14.0056 23.0412C14.1441 23.1692 14.2139 23.3367 14.2152 23.5438C14.2139 23.7257 14.1589 23.8864 14.0503 24.0257C13.9429 24.1637 13.7935 24.2716 13.602 24.3494C13.4105 24.4272 13.1906 24.4661 12.9422 24.4661C12.5774 24.4661 12.2838 24.3921 12.0613 24.244C11.8387 24.0947 11.7061 23.887 11.6635 23.621L12.3485 23.557C12.3795 23.6875 12.4455 23.786 12.5464 23.8525C12.6473 23.919 12.7786 23.9522 12.9403 23.9522C13.1072 23.9522 13.2411 23.919 13.342 23.8525C13.4442 23.786 13.4953 23.7038 13.4953 23.6059C13.4953 23.5231 13.4623 23.4547 13.3963 23.4007C13.3316 23.3468 13.2307 23.3054 13.0936 23.2765L12.5852 23.173C12.2993 23.1152 12.0878 23.018 11.9507 22.8812C11.8135 22.7432 11.7456 22.5688 11.7469 22.3579C11.7456 22.1797 11.7954 22.0254 11.8963 21.8949C11.9985 21.7631 12.1402 21.6615 12.3213 21.59C12.5037 21.5172 12.7139 21.4808 12.9519 21.4808C13.3012 21.4808 13.5761 21.5529 13.7767 21.6972C13.9785 21.8416 14.1033 22.0367 14.1512 22.2826Z" fill="#0D0D0D"/>
<path d="M16.0946 24.4661C15.8035 24.4661 15.5512 24.404 15.3378 24.2798C15.1243 24.1555 14.9587 23.9817 14.841 23.7584C14.7246 23.535 14.6664 23.274 14.6664 22.9753C14.6664 22.6767 14.7246 22.415 14.841 22.1904C14.9587 21.9658 15.1243 21.7914 15.3378 21.6671C15.5512 21.5429 15.8035 21.4808 16.0946 21.4808C16.3856 21.4808 16.6379 21.5429 16.8514 21.6671C17.0648 21.7914 17.2298 21.9658 17.3462 22.1904C17.4639 22.415 17.5228 22.6767 17.5228 22.9753C17.5228 23.274 17.4639 23.535 17.3462 23.7584C17.2298 23.9817 17.0648 24.1555 16.8514 24.2798C16.6379 24.404 16.3856 24.4661 16.0946 24.4661ZM16.0984 23.9202C16.2563 23.9202 16.3882 23.8782 16.4943 23.7941C16.6004 23.7088 16.6793 23.5946 16.731 23.4515C16.7841 23.3085 16.8106 23.1491 16.8106 22.9734C16.8106 22.7965 16.7841 22.6365 16.731 22.4935C16.6793 22.3491 16.6004 22.2343 16.4943 22.149C16.3882 22.0637 16.2563 22.021 16.0984 22.021C15.9367 22.021 15.8022 22.0637 15.6948 22.149C15.5887 22.2343 15.5092 22.3491 15.4561 22.4935C15.4044 22.6365 15.3785 22.7965 15.3785 22.9734C15.3785 23.1491 15.4044 23.3085 15.4561 23.4515C15.5092 23.5946 15.5887 23.7088 15.6948 23.7941C15.8022 23.8782 15.9367 23.9202 16.0984 23.9202Z" fill="#0D0D0D"/>
<path d="M18.8214 20.5547V24.4096H18.119V20.5547H18.8214Z" fill="#0D0D0D"/>
<path d="M22.7285 0.5L27.2938 8.40723H18.1633L22.7285 0.5Z" fill="#4E5D78"/>
<rect x="21.2909" y="8.17188" width="2.87536" height="7.66761" fill="#4E5D78"/>
<defs>
<linearGradient id="paint0_linear_9694_26260" x1="5.29695" y1="29.3253" x2="30.974" y2="12.8753" gradientUnits="userSpaceOnUse">
<stop stop-color="#C6C5C9"/>
<stop offset="1" stop-color="#EFEFEF"/>
</linearGradient>
</defs>
</svg>
