<svg width="34" height="33" viewBox="0 0 34 33" fill="none" xmlns="http://www.w3.org/2000/svg">
<rect x="0.8125" y="0.00390625" width="33" height="33" fill="#F8F8F8"/>
<rect x="3.28906" y="3.00781" width="28.0391" height="28.0391" rx="1.69934" fill="#D7D7D7"/>
<rect x="4.56348" y="10.1699" width="25.4901" height="19.5424" fill="#F9F9F9"/>
<circle cx="5.94274" cy="6.5089" r="0.954218" fill="black"/>
<circle cx="9.40124" cy="6.5089" r="0.954218" fill="black"/>
<circle cx="12.8595" cy="6.5089" r="0.954218" fill="black"/>
<rect x="7.53955" y="16.2363" width="4.12886" height="0.849669" fill="#BDBDBD"/>
<rect x="7.53955" y="16.2363" width="4.12886" height="0.849669" fill="#BDBDBD"/>
<rect x="7.53955" y="26.4062" width="4.12886" height="0.849669" fill="#BDBDBD"/>
<rect x="7.53955" y="18.7793" width="3.14643" height="0.849669" fill="#BDBDBD"/>
<rect x="7.53955" y="23.8633" width="3.14643" height="0.849669" fill="#BDBDBD"/>
<rect x="7.53955" y="21.3203" width="6.42562" height="0.849669" fill="#BDBDBD"/>
<rect x="14.6755" y="21.3203" width="6.42562" height="0.849669" fill="#BDBDBD"/>
<rect x="21.7449" y="21.3203" width="3.48497" height="0.849669" fill="#BDBDBD"/>
<rect x="11.4958" y="18.7793" width="6.36588" height="0.849669" fill="#BDBDBD"/>
<rect x="11.4958" y="23.8633" width="6.36588" height="0.849669" fill="#BDBDBD"/>
<rect x="18.6716" y="18.7793" width="4.84577" height="0.849669" fill="#BDBDBD"/>
<rect x="18.6716" y="23.8633" width="4.84577" height="0.849669" fill="#BDBDBD"/>
<rect x="23.9421" y="16.2363" width="3.13979" height="0.849669" fill="#BDBDBD"/>
<rect x="23.9421" y="26.4062" width="3.13979" height="0.849669" fill="#BDBDBD"/>
<rect x="12.3455" y="16.2363" width="10.9196" height="0.849669" fill="#BDBDBD"/>
<rect x="12.3455" y="26.4062" width="10.9196" height="0.849669" fill="#BDBDBD"/>
<rect x="10.3875" y="12.707" width="3.02031" height="0.849669" fill="#BDBDBD"/>
<rect x="7.54199" y="13.1309" width="2.27383" height="0.849669" transform="rotate(-44.6646 7.54199 13.1309)" fill="#BDBDBD"/>
<rect x="8.146" y="12.5234" width="2.27383" height="0.849669" transform="rotate(45 8.146 12.5234)" fill="#BDBDBD"/>
<rect width="2.27383" height="0.849669" transform="matrix(-0.711235 -0.702955 -0.702955 0.711235 16.3062 13.1309)" fill="#BDBDBD"/>
<rect width="2.27383" height="0.849669" transform="matrix(-0.707107 0.707107 0.707107 0.707107 15.7021 12.5234)" fill="#BDBDBD"/>
</svg>
