
        <svg width="200" height="196" viewBox="0 0 200 196" fill="none" xmlns="http://www.w3.org/2000/svg">
        <path d="M8.41016 51.7887H178.508V43.9688C178.508 40.7722 175.917 38.1809 172.72 38.1809H14.1981C11.0015 38.1809 8.41016 40.7722 8.41016 43.9688V51.7887Z" fill="#1F1E1E"/>
        <circle cx="23.2135" cy="44.9813" r="1.94398" fill="#888888"/>
        <circle cx="30.9889" cy="44.9813" r="1.94398" fill="#888888"/>
        <circle cx="38.7662" cy="44.9813" r="1.94398" fill="#888888"/>
        <g filter="url(#filter0_d_9122_13318)">
        <path d="M8.41016 51.7887H178.508V157.779C178.508 160.976 175.917 163.567 172.72 163.567H14.1981C11.0015 163.567 8.41016 160.976 8.41016 157.779V51.7887Z" fill="#2F2F2F"/>
        </g>
        <rect x="62.8379" y="60.5371" width="103.031" height="46.6554" rx="3.88795" fill="#393939"/>
        <rect x="62.8379" y="118.858" width="32.0756" height="31.1036" rx="3.88795" fill="#393939"/>
        <rect x="98.8027" y="118.858" width="31.1036" height="31.1036" rx="3.88795" fill="#393939"/>
        <rect x="133.791" y="118.858" width="32.0756" height="31.1036" rx="3.88795" fill="#393939"/>
        <path d="M8.41016 51.7926H53.1216V163.571H14.1935C10.9994 163.571 8.41016 160.982 8.41016 157.788V51.7926Z" fill="#232323"/>
        <rect x="19.1016" y="66.3705" width="22.6763" height="1.61974" rx="0.809869" fill="#393939"/>
        <rect x="19.1016" y="76.2949" width="22.6763" height="1.61974" rx="0.809869" fill="#393939"/>
        <rect x="19.1016" y="86.2231" width="22.6763" height="1.61974" rx="0.809869" fill="#393939"/>
        <rect x="19.1016" y="96.1514" width="22.6763" height="1.61974" rx="0.809869" fill="#393939"/>
        <rect x="19.1016" y="106.076" width="22.6763" height="1.61974" rx="0.809869" fill="#393939"/>
        <rect x="19.1016" y="115.997" width="22.6763" height="1.61974" rx="0.809869" fill="#393939"/>
        <circle cx="85.2476" cy="117.001" r="31.6948" fill="white"/>
        <circle cx="85.2476" cy="117.001" r="31.6948" fill="#1C1C1C"/>
        <path fill-rule="evenodd" clip-rule="evenodd" d="M76.1035 122.407C76.1035 120.262 77.7253 118.535 79.7397 118.535C81.7542 118.535 83.3759 120.262 83.3759 122.407V131.936C83.3759 134.081 81.7542 135.807 79.7397 135.807C77.7253 135.807 76.1035 134.081 76.1035 131.936V122.407Z" fill="white" stroke="white" stroke-width="0.524453" stroke-linecap="round" stroke-linejoin="round"/>
        <path fill-rule="evenodd" clip-rule="evenodd" d="M89.0647 125.808C86.92 125.808 85.1934 124.186 85.1934 122.172C85.1934 120.157 86.92 118.535 89.0647 118.535H98.5941C100.739 118.535 102.465 120.157 102.465 122.172C102.465 124.186 100.739 125.808 98.5941 125.808H89.0647Z" fill="white" stroke="white" stroke-width="0.524453" stroke-linecap="round" stroke-linejoin="round"/>
        <path fill-rule="evenodd" clip-rule="evenodd" d="M85.1934 103.319C85.1934 101.174 86.8151 99.4473 88.8296 99.4473C90.844 99.4473 92.4658 101.174 92.4658 103.319V112.848C92.4658 114.993 90.844 116.719 88.8296 116.719C86.8151 116.719 85.1934 114.993 85.1934 112.848V103.319Z" fill="white" stroke="white" stroke-width="0.524453" stroke-linecap="round" stroke-linejoin="round"/>
        <path fill-rule="evenodd" clip-rule="evenodd" d="M69.9729 116.719C67.8282 116.719 66.1016 115.097 66.1016 113.083C66.1016 111.069 67.8282 109.447 69.9729 109.447H79.5022C81.647 109.447 83.3736 111.069 83.3736 113.083C83.3736 115.097 81.647 116.719 79.5022 116.719H69.9729Z" fill="white" stroke="white" stroke-width="0.524453" stroke-linecap="round" stroke-linejoin="round"/>
        <path fill-rule="evenodd" clip-rule="evenodd" d="M85.1914 132.171C85.1904 132.649 85.2838 133.122 85.4661 133.564C85.6485 134.005 85.9163 134.407 86.2542 134.744C86.592 135.082 86.9933 135.35 87.4349 135.533C87.8765 135.715 88.3498 135.808 88.8276 135.807C90.8421 135.807 92.4638 134.185 92.4638 132.171C92.4649 131.693 92.3715 131.22 92.1891 130.778C92.0068 130.337 91.739 129.935 91.4011 129.598C91.0632 129.26 90.662 128.992 90.2204 128.81C89.7787 128.627 89.3054 128.534 88.8276 128.535H85.1914V132.171Z" fill="white" stroke="white" stroke-width="0.524453" stroke-linecap="round"/>
        <path fill-rule="evenodd" clip-rule="evenodd" d="M98.8276 116.719H95.1914V113.083C95.1914 111.069 96.8132 109.447 98.8276 109.447C100.842 109.447 102.464 111.069 102.464 113.083C102.464 115.097 100.842 116.719 98.8276 116.719Z" fill="white" stroke="white" stroke-width="0.524453" stroke-linecap="round"/>
        <path fill-rule="evenodd" clip-rule="evenodd" d="M69.7378 118.535H73.374V122.172C73.374 124.186 71.7523 125.808 69.7378 125.808C69.26 125.809 68.7867 125.715 68.3451 125.533C67.9034 125.351 67.5022 125.083 67.1643 124.745C66.8265 124.407 66.5587 124.006 66.3763 123.564C66.1939 123.123 66.1006 122.649 66.1016 122.172C66.1016 120.157 67.7233 118.535 69.7378 118.535Z" fill="white" stroke="white" stroke-width="0.524453" stroke-linecap="round"/>
        <path fill-rule="evenodd" clip-rule="evenodd" d="M83.374 103.083V106.72H79.7378C79.26 106.721 78.7867 106.627 78.3451 106.445C77.9034 106.263 77.5022 105.995 77.1643 105.657C76.8265 105.319 76.5587 104.918 76.3763 104.476C76.1939 104.035 76.1006 103.561 76.1016 103.083C76.1016 101.069 77.7233 99.4473 79.7378 99.4473C80.2156 99.4463 80.6889 99.5396 81.1305 99.722C81.5721 99.9044 81.9734 100.172 82.3113 100.51C82.6491 100.848 82.9169 101.249 83.0993 101.691C83.2817 102.132 83.375 102.606 83.374 103.083Z" fill="white" stroke="white" stroke-width="0.524453" stroke-linecap="round"/>
        <circle cx="139.24" cy="56.0918" r="40.0918" fill="white"/>
        <circle cx="139.24" cy="56.0918" r="40.0918" fill="#1C1C1C"/>
        <path fill-rule="evenodd" clip-rule="evenodd" d="M127.53 88.4581C127.734 88.5302 127.938 88.6006 128.143 88.6694C130.068 89.058 130.773 87.8294 130.773 86.796C130.773 86.4828 130.765 85.9065 130.755 85.1529C130.736 83.7285 130.709 81.6705 130.709 79.5569C119.93 81.884 117.686 74.9035 117.686 74.9035C115.953 70.3793 113.387 69.2166 113.387 69.2166C109.859 66.8252 113.644 66.8252 113.644 66.8252C117.557 67.0838 119.611 70.8322 119.611 70.8322C123.074 76.7777 128.656 75.0978 130.901 74.0635C131.222 71.5429 132.249 69.7979 133.339 68.8287C124.742 67.9237 115.697 64.5632 115.697 49.5686C115.697 45.3031 117.236 41.8132 119.674 39.0991C119.289 38.1298 117.942 34.122 120.06 28.758C120.06 28.758 123.331 27.7237 130.708 32.765C133.867 31.9105 137.124 31.4758 140.396 31.4721C143.668 31.4721 147.003 31.925 150.083 32.765C157.461 27.7237 160.732 28.758 160.732 28.758C162.85 34.122 161.502 38.1298 161.117 39.0991C163.619 41.8132 165.095 45.3031 165.095 49.5686C165.095 64.5632 156.05 67.8587 147.388 68.8287C148.8 70.0565 150.018 72.3828 150.018 76.067C150.018 79.5643 149.99 82.6003 149.971 84.6157C149.962 85.617 149.955 86.3663 149.955 86.7952C149.955 87.8294 150.661 89.058 152.585 88.6702C153.402 88.3958 154.207 88.0949 154.998 87.7685C150.586 89.922 145.68 91.1221 140.511 91.1221C135.924 91.1221 131.543 90.1766 127.53 88.4581Z" fill="url(#paint0_linear_9122_13318)"/>
        <circle cx="158.409" cy="128.351" r="24.2415" fill="white"/>
        <circle cx="158.409" cy="128.351" r="24.2415" fill="#1C1C1C"/>
        <g opacity="0.7">
        <path d="M173.28 127.826L158.25 112.797L143.221 127.826C142.986 128.063 142.854 128.383 142.854 128.717C142.854 129.051 142.986 129.371 143.221 129.608L158.25 144.637L173.28 129.608C173.515 129.371 173.647 129.051 173.647 128.717C173.647 128.383 173.515 128.063 173.28 127.826ZM158.25 133.423L153.543 128.715L158.25 124.008L162.958 128.715L158.25 133.423Z" fill="white"/>
        <path d="M158.25 124.039C156.77 122.558 155.935 120.552 155.929 118.459C155.922 116.365 156.745 114.354 158.216 112.865L147.885 123.131L153.49 128.736L158.25 124.039Z" fill="#DFDFDF"/>
        <path d="M162.971 128.703L158.252 133.423C158.988 134.159 159.573 135.033 159.971 135.995C160.37 136.956 160.575 137.987 160.575 139.028C160.575 140.07 160.37 141.101 159.971 142.062C159.573 143.024 158.988 143.898 158.252 144.634L168.574 134.312L162.971 128.703Z" fill="#DFDFDF"/>
        </g>
        <defs>
        <filter id="filter0_d_9122_13318" x="0.692911" y="51.7887" width="185.532" height="127.213" filterUnits="userSpaceOnUse" color-interpolation-filters="sRGB">
        <feFlood flood-opacity="0" result="BackgroundImageFix"/>
        <feColorMatrix in="SourceAlpha" type="matrix" values="0 0 0 0 0 0 0 0 0 0 0 0 0 0 0 0 0 0 127 0" result="hardAlpha"/>
        <feOffset dy="7.71725"/>
        <feGaussianBlur stdDeviation="3.85862"/>
        <feComposite in2="hardAlpha" operator="out"/>
        <feColorMatrix type="matrix" values="0 0 0 0 0 0 0 0 0 0 0 0 0 0 0 0 0 0 0.25 0"/>
        <feBlend mode="normal" in2="BackgroundImageFix" result="effect1_dropShadow_9122_13318"/>
        <feBlend mode="normal" in="SourceGraphic" in2="effect1_dropShadow_9122_13318" result="shape"/>
        </filter>
        <linearGradient id="paint0_linear_9122_13318" x1="117.014" y1="33.1312" x2="172.671" y2="71.7849" gradientUnits="userSpaceOnUse">
        <stop stop-color="#FF9500"/>
        <stop offset="1" stop-color="#DB2777"/>
        </linearGradient>
        </defs>
        </svg>

